<?xml version="1.0" encoding="utf-8"?>
<!-- Generator: Adobe Illustrator 16.0.0, SVG Export Plug-In . SVG Version: 6.00 Build 0)  -->
<!DOCTYPE svg PUBLIC "-//W3C//DTD SVG 1.1//EN" "http://www.w3.org/Graphics/SVG/1.1/DTD/svg11.dtd">
<svg version="1.1" id="Layer_1" xmlns="http://www.w3.org/2000/svg" xmlns:xlink="http://www.w3.org/1999/xlink" x="0px" y="0px"
	 width="30px" height="30px" viewBox="0 0 30 30" enable-background="new 0 0 30 30" xml:space="preserve">
<path d="M-87-16c0,0-18.64,31.056-18.64,41.35C-105.64,35.65-97.294,44-87,44s18.64-8.352,18.64-18.65C-68.36,15.056-87-16-87-16z
	 M-85.729,39.184c-1.502,0-2.943-0.258-4.294-0.709c8.516-2.731,14.917-10.137,16.243-19.191c1.011,1.896,1.589,4.062,1.589,6.361
	C-72.191,33.12-78.252,39.184-85.729,39.184z"/>
<path d="M-28-7c0,0-12.426,20.704-12.426,27.566C-40.426,27.434-34.863,33-28,33s12.426-5.566,12.426-12.434
	C-15.574,13.704-28-7-28-7z M-27.153,29.788c-1.002,0-1.962-0.171-2.863-0.474c5.677-1.819,9.945-6.756,10.829-12.793
	c0.674,1.266,1.06,2.709,1.06,4.242C-18.127,25.747-22.168,29.788-27.153,29.788z"/>
<path d="M5.68,20.675C5.68,25.824,9.854,30,15,30s9.32-4.176,9.32-9.325C24.32,15.527,15,0,15,0S5.68,15.527,5.68,20.675z
	 M7.596,20.823c0-1.15,0.289-2.233,0.795-3.181c0.662,4.527,3.863,8.229,8.121,9.594c-0.675,0.227-1.396,0.355-2.146,0.355
	C10.626,27.592,7.596,24.561,7.596,20.823z"/>
<path d="M46,4c0,0-6.213,10.352-6.213,13.783C39.787,21.216,42.568,24,46,24s6.213-2.784,6.213-6.217C52.213,14.352,46,4,46,4z
	 M46.423,22.395c-0.5,0-0.981-0.086-1.431-0.236c2.838-0.91,4.973-3.378,5.414-6.397c0.337,0.632,0.529,1.354,0.529,2.121
	C50.936,20.374,48.916,22.395,46.423,22.395z"/>
</svg>
