<svg xmlns="http://www.w3.org/2000/svg" xmlns:xlink="http://www.w3.org/1999/xlink" version="1.1" id="Your_Icon" x="0px" y="0px" width="100px" height="100px" viewBox="0 0 100 100" enable-background="new 0 0 100 100" xml:space="preserve">
<polyline points="49.75,0 55.52,3.331 55.52,9.169 60.575,6.25 66.345,9.581 66.345,16.243 55.52,22.493 55.52,40.007 70.688,31.25   70.688,18.75 76.457,15.419 82.226,18.75 82.226,24.588 87.282,21.669 93.051,25 93.051,31.662 87.995,34.581 93.051,37.5   93.051,44.162 87.282,47.493 76.457,41.243 61.288,50 76.457,58.758 87.282,52.508 93.051,55.838 93.051,62.5 87.995,65.419   93.051,68.338 93.051,75 87.282,78.331 82.226,75.411 82.226,81.25 76.457,84.581 70.688,81.25 70.688,68.75 55.52,59.992   55.52,77.507 66.345,83.757 66.345,90.419 60.575,93.75 55.52,90.831 55.52,96.669 49.75,100 43.981,96.669 43.981,90.831   38.925,93.75 33.156,90.419 33.156,83.757 43.981,77.507 43.981,59.992 28.813,68.75 28.813,81.25 23.043,84.581 17.274,81.25   17.274,75.411 12.218,78.331 6.449,75 6.449,68.338 11.505,65.419 6.449,62.5 6.449,55.838 12.218,52.508 23.043,58.758 38.212,50   23.043,41.243 12.218,47.493 6.449,44.162 6.449,37.5 11.505,34.581 6.449,31.662 6.449,25 12.218,21.669 17.274,24.588   17.274,18.75 23.043,15.419 28.813,18.75 28.813,31.25 43.981,40.007 43.981,22.493 33.156,16.243 33.156,9.581 38.925,6.25   43.981,9.169 43.981,3.331 49.75,0 "/>
</svg>